<svg width="150" height="650" viewBox="0 0 150 650" fill="none" xmlns="http://www.w3.org/2000/svg">
<path d="M150 575C150 594.891 142.098 613.968 128.033 628.033C113.968 642.098 94.8912 650 75 650C55.1088 650 36.0322 642.098 21.967 628.033C7.90175 613.968 0 594.891 0 575C0 555.109 7.90175 536.032 21.967 521.967C36.0322 507.902 55.1088 500 75 500C94.8912 500 113.968 507.902 128.033 521.967C142.098 536.032 150 555.109 150 575ZM150 325C150 344.891 142.098 363.968 128.033 378.033C113.968 392.098 94.8912 400 75 400C55.1088 400 36.0322 392.098 21.967 378.033C7.90175 363.968 0 344.891 0 325C0 305.109 7.90175 286.032 21.967 271.967C36.0322 257.902 55.1088 250 75 250C94.8912 250 113.968 257.902 128.033 271.967C142.098 286.032 150 305.109 150 325ZM150 75C150 94.8912 142.098 113.968 128.033 128.033C113.968 142.098 94.8912 150 75 150C55.1088 150 36.0322 142.098 21.967 128.033C7.90175 113.968 0 94.8912 0 75C0 55.1088 7.90175 36.0322 21.967 21.967C36.0322 7.90177 55.1088 0 75 0C94.8912 0 113.968 7.90177 128.033 21.967C142.098 36.0322 150 55.1088 150 75Z" fill="#1A1C24"/>
</svg>
